<?xml version="1.0" encoding="utf-8" standalone="no"?>
<!DOCTYPE svg PUBLIC "-//W3C//DTD SVG 1.1//EN"
  "http://www.w3.org/Graphics/SVG/1.1/DTD/svg11.dtd">
<!-- Created with matplotlib (https://matplotlib.org/) -->
<svg height="345.6pt" version="1.1" viewBox="0 0 460.8 345.6" width="460.8pt" xmlns="http://www.w3.org/2000/svg" xmlns:xlink="http://www.w3.org/1999/xlink">
 <defs>
  <style type="text/css">
*{stroke-linecap:butt;stroke-linejoin:round;}
  </style>
 </defs>
 <g id="figure_1">
  <g id="patch_1">
   <path d="M 0 345.6 
L 460.8 345.6 
L 460.8 0 
L 0 0 
z
" style="fill:#ffffff;"/>
  </g>
  <g id="axes_1">
   <g id="patch_2">
    <path d="M 57.6 307.584 
L 414.72 307.584 
L 414.72 41.472 
L 57.6 41.472 
z
" style="fill:#ffffff;"/>
   </g>
   <g id="matplotlib.axis_1">
    <g id="xtick_1">
     <g id="line2d_1">
      <path clip-path="url(#pb32b0d6475)" d="M 73.832727 307.584 
L 73.832727 41.472 
" style="fill:none;stroke:#b0b0b0;stroke-linecap:square;stroke-width:0.8;"/>
     </g>
     <g id="line2d_2">
      <defs>
       <path d="M 0 0 
L 0 3.5 
" id="mc702ba00be" style="stroke:#000000;stroke-width:0.8;"/>
      </defs>
      <g>
       <use style="stroke:#000000;stroke-width:0.8;" x="73.832727" xlink:href="#mc702ba00be" y="307.584"/>
      </g>
     </g>
     <g id="text_1">
      <!-- $0$ -->
      <defs>
       <path d="M 42 31.84375 
C 42 37.96875 41.90625 48.421875 37.703125 56.453125 
C 34 63.484375 28.09375 66 22.90625 66 
C 18.09375 66 12 63.78125 8.203125 56.5625 
C 4.203125 49.015625 3.796875 39.671875 3.796875 31.84375 
C 3.796875 26.109375 3.90625 17.375 7 9.734375 
C 11.296875 -0.609375 19 -2 22.90625 -2 
C 27.5 -2 34.5 -0.109375 38.59375 9.4375 
C 41.59375 16.375 42 24.5 42 31.84375 
z
M 22.90625 -0.40625 
C 16.5 -0.40625 12.703125 5.125 11.296875 12.75 
C 10.203125 18.6875 10.203125 27.328125 10.203125 32.953125 
C 10.203125 40.6875 10.203125 47.109375 11.5 53.234375 
C 13.40625 61.78125 19 64.390625 22.90625 64.390625 
C 27 64.390625 32.296875 61.671875 34.203125 53.4375 
C 35.5 47.71875 35.59375 40.984375 35.59375 32.953125 
C 35.59375 26.421875 35.59375 18.375 34.40625 12.453125 
C 32.296875 1.5 26.40625 -0.40625 22.90625 -0.40625 
z
" id="CMR17-48"/>
      </defs>
      <g transform="translate(70.906232 322.88618)scale(0.12 -0.12)">
       <use transform="scale(0.996264)" xlink:href="#CMR17-48"/>
      </g>
     </g>
    </g>
    <g id="xtick_2">
     <g id="line2d_3">
      <path clip-path="url(#pb32b0d6475)" d="M 129.807649 307.584 
L 129.807649 41.472 
" style="fill:none;stroke:#b0b0b0;stroke-linecap:square;stroke-width:0.8;"/>
     </g>
     <g id="line2d_4">
      <g>
       <use style="stroke:#000000;stroke-width:0.8;" x="129.807649" xlink:href="#mc702ba00be" y="307.584"/>
      </g>
     </g>
     <g id="text_2">
      <!-- $50$ -->
      <defs>
       <path d="M 11.40625 58.59375 
C 12.40625 58.1875 16.5 56.890625 20.703125 56.890625 
C 30 56.890625 35.09375 61.890625 38 64.6875 
C 38 65.484375 38 66 37.40625 66 
C 37.296875 66 37.09375 66 36.296875 65.59375 
C 32.796875 64.09375 28.703125 63 23.703125 63 
C 20.703125 63 16.203125 63.359375 11.296875 65.484375 
C 10.203125 66 10 66 9.90625 66 
C 9.40625 66 9.296875 65.890625 9.296875 63.90625 
L 9.296875 34.859375 
C 9.296875 33.015625 9.296875 32.5 10.296875 32.5 
C 10.796875 32.5 11 32.703125 11.5 33.421875 
C 14.703125 38.046875 19.09375 40 24.09375 40 
C 27.59375 40 35.09375 37.734375 35.09375 20.203125 
C 35.09375 16.984375 35.09375 11.1875 32.09375 6.59375 
C 29.59375 2.484375 25.703125 0.390625 21.40625 0.390625 
C 14.796875 0.390625 8.09375 4.984375 6.296875 12.6875 
C 6.703125 12.59375 7.5 12.390625 7.90625 12.390625 
C 9.203125 12.390625 11.703125 13.09375 11.703125 16.1875 
C 11.703125 18.890625 9.796875 20 7.90625 20 
C 5.59375 20 4.09375 18.59375 4.09375 15.796875 
C 4.09375 7.09375 11 -2 21.59375 -2 
C 31.90625 -2 41.703125 6.890625 41.703125 19.796875 
C 41.703125 32.09375 33.90625 41.59375 24.203125 41.59375 
C 19.09375 41.59375 14.796875 39.6875 11.40625 36 
z
" id="CMR17-53"/>
      </defs>
      <g transform="translate(123.954659 322.88618)scale(0.12 -0.12)">
       <use transform="scale(0.996264)" xlink:href="#CMR17-53"/>
       <use transform="translate(45.690477 0)scale(0.996264)" xlink:href="#CMR17-48"/>
      </g>
     </g>
    </g>
    <g id="xtick_3">
     <g id="line2d_5">
      <path clip-path="url(#pb32b0d6475)" d="M 185.782571 307.584 
L 185.782571 41.472 
" style="fill:none;stroke:#b0b0b0;stroke-linecap:square;stroke-width:0.8;"/>
     </g>
     <g id="line2d_6">
      <g>
       <use style="stroke:#000000;stroke-width:0.8;" x="185.782571" xlink:href="#mc702ba00be" y="307.584"/>
      </g>
     </g>
     <g id="text_3">
      <!-- $100$ -->
      <defs>
       <path d="M 26.59375 63.796875 
C 26.59375 65.890625 26.5 66 25.09375 66 
C 21.203125 61.359375 15.296875 59.890625 9.703125 59.6875 
C 9.40625 59.6875 8.90625 59.6875 8.796875 59.5 
C 8.703125 59.296875 8.703125 59.09375 8.703125 57 
C 11.796875 57 17 57.59375 21 59.984375 
L 21 7.296875 
C 21 3.796875 20.796875 2.59375 12.203125 2.59375 
L 9.203125 2.59375 
L 9.203125 0 
C 14 0.09375 19 0.1875 23.796875 0.1875 
C 28.59375 0.1875 33.59375 0.09375 38.40625 0 
L 38.40625 2.59375 
L 35.40625 2.59375 
C 26.796875 2.59375 26.59375 3.6875 26.59375 7.296875 
z
" id="CMR17-49"/>
      </defs>
      <g transform="translate(177.003085 322.88618)scale(0.12 -0.12)">
       <use transform="scale(0.996264)" xlink:href="#CMR17-49"/>
       <use transform="translate(45.690477 0)scale(0.996264)" xlink:href="#CMR17-48"/>
       <use transform="translate(91.380954 0)scale(0.996264)" xlink:href="#CMR17-48"/>
      </g>
     </g>
    </g>
    <g id="xtick_4">
     <g id="line2d_7">
      <path clip-path="url(#pb32b0d6475)" d="M 241.757492 307.584 
L 241.757492 41.472 
" style="fill:none;stroke:#b0b0b0;stroke-linecap:square;stroke-width:0.8;"/>
     </g>
     <g id="line2d_8">
      <g>
       <use style="stroke:#000000;stroke-width:0.8;" x="241.757492" xlink:href="#mc702ba00be" y="307.584"/>
      </g>
     </g>
     <g id="text_4">
      <!-- $150$ -->
      <g transform="translate(232.978007 322.88618)scale(0.12 -0.12)">
       <use transform="scale(0.996264)" xlink:href="#CMR17-49"/>
       <use transform="translate(45.690477 0)scale(0.996264)" xlink:href="#CMR17-53"/>
       <use transform="translate(91.380954 0)scale(0.996264)" xlink:href="#CMR17-48"/>
      </g>
     </g>
    </g>
    <g id="xtick_5">
     <g id="line2d_9">
      <path clip-path="url(#pb32b0d6475)" d="M 297.732414 307.584 
L 297.732414 41.472 
" style="fill:none;stroke:#b0b0b0;stroke-linecap:square;stroke-width:0.8;"/>
     </g>
     <g id="line2d_10">
      <g>
       <use style="stroke:#000000;stroke-width:0.8;" x="297.732414" xlink:href="#mc702ba00be" y="307.584"/>
      </g>
     </g>
     <g id="text_5">
      <!-- $200$ -->
      <defs>
       <path d="M 41.703125 15.46875 
L 39.90625 15.46875 
C 38.90625 8.390625 38.09375 7.1875 37.703125 6.59375 
C 37.203125 5.796875 30 5.796875 28.59375 5.796875 
L 9.40625 5.796875 
C 13 9.6875 20 16.765625 28.5 24.9375 
C 34.59375 30.71875 41.703125 37.5 41.703125 47.390625 
C 41.703125 59.1875 32.296875 66 21.796875 66 
C 10.796875 66 4.09375 56.296875 4.09375 47.296875 
C 4.09375 43.390625 7 42.890625 8.203125 42.890625 
C 9.203125 42.890625 12.203125 43.484375 12.203125 46.984375 
C 12.203125 50.09375 9.59375 51 8.203125 51 
C 7.59375 51 7 50.890625 6.59375 50.6875 
C 8.5 59.1875 14.296875 63.390625 20.40625 63.390625 
C 29.09375 63.390625 34.796875 56.5 34.796875 47.390625 
C 34.796875 38.703125 29.703125 31.21875 24 24.734375 
L 4.09375 2.296875 
L 4.09375 0 
L 39.296875 0 
z
" id="CMR17-50"/>
      </defs>
      <g transform="translate(288.952928 322.88618)scale(0.12 -0.12)">
       <use transform="scale(0.996264)" xlink:href="#CMR17-50"/>
       <use transform="translate(45.690477 0)scale(0.996264)" xlink:href="#CMR17-48"/>
       <use transform="translate(91.380954 0)scale(0.996264)" xlink:href="#CMR17-48"/>
      </g>
     </g>
    </g>
    <g id="xtick_6">
     <g id="line2d_11">
      <path clip-path="url(#pb32b0d6475)" d="M 353.707335 307.584 
L 353.707335 41.472 
" style="fill:none;stroke:#b0b0b0;stroke-linecap:square;stroke-width:0.8;"/>
     </g>
     <g id="line2d_12">
      <g>
       <use style="stroke:#000000;stroke-width:0.8;" x="353.707335" xlink:href="#mc702ba00be" y="307.584"/>
      </g>
     </g>
     <g id="text_6">
      <!-- $250$ -->
      <g transform="translate(344.92785 322.88618)scale(0.12 -0.12)">
       <use transform="scale(0.996264)" xlink:href="#CMR17-50"/>
       <use transform="translate(45.690477 0)scale(0.996264)" xlink:href="#CMR17-53"/>
       <use transform="translate(91.380954 0)scale(0.996264)" xlink:href="#CMR17-48"/>
      </g>
     </g>
    </g>
    <g id="xtick_7">
     <g id="line2d_13">
      <path clip-path="url(#pb32b0d6475)" d="M 409.682257 307.584 
L 409.682257 41.472 
" style="fill:none;stroke:#b0b0b0;stroke-linecap:square;stroke-width:0.8;"/>
     </g>
     <g id="line2d_14">
      <g>
       <use style="stroke:#000000;stroke-width:0.8;" x="409.682257" xlink:href="#mc702ba00be" y="307.584"/>
      </g>
     </g>
     <g id="text_7">
      <!-- $300$ -->
      <defs>
       <path d="M 22.09375 34 
C 31 34 34.90625 26.140625 34.90625 17.09375 
C 34.90625 5.03125 28.5 0.390625 22.703125 0.390625 
C 17.40625 0.390625 8.796875 3.015625 6.09375 10.796875 
C 6.59375 10.59375 7.09375 10.59375 7.59375 10.59375 
C 10 10.59375 11.796875 12.1875 11.796875 14.796875 
C 11.796875 17.6875 9.59375 19 7.59375 19 
C 5.90625 19 3.296875 18.1875 3.296875 14.484375 
C 3.296875 5.234375 12.296875 -2 22.90625 -2 
C 34 -2 42.5 6.75 42.5 16.984375 
C 42.5 26.84375 34.5 34 25 35.09375 
C 32.59375 36.671875 39.90625 43.375 39.90625 52.390625 
C 39.90625 60.25 32 66 23 66 
C 13.90625 66 5.90625 60.34375 5.90625 52.296875 
C 5.90625 48.796875 8.5 48.1875 9.796875 48.1875 
C 11.90625 48.1875 13.703125 49.484375 13.703125 52.09375 
C 13.703125 54.6875 11.90625 56 9.796875 56 
C 9.40625 56 8.90625 56 8.5 55.796875 
C 11.40625 62.484375 19.296875 63.6875 22.796875 63.6875 
C 26.296875 63.6875 32.90625 61.96875 32.90625 52.296875 
C 32.90625 49.484375 32.5 44.546875 29.09375 40.21875 
C 26.09375 36.390625 22.703125 36.1875 19.40625 35.890625 
C 18.90625 35.890625 16.59375 35.6875 16.203125 35.6875 
C 15.5 35.59375 15.09375 35.5 15.09375 34.796875 
C 15.09375 34.09375 15.203125 34 17.203125 34 
z
" id="CMR17-51"/>
      </defs>
      <g transform="translate(400.902772 322.88618)scale(0.12 -0.12)">
       <use transform="scale(0.996264)" xlink:href="#CMR17-51"/>
       <use transform="translate(45.690477 0)scale(0.996264)" xlink:href="#CMR17-48"/>
       <use transform="translate(91.380954 0)scale(0.996264)" xlink:href="#CMR17-48"/>
      </g>
     </g>
    </g>
    <g id="text_8">
     <!-- $\displaystyle r$ -->
     <defs>
      <path d="M 38.90625 41.140625 
C 35.796875 40.59375 34.203125 38.390625 34.203125 36.1875 
C 34.203125 33.796875 36.09375 32.984375 37.5 32.984375 
C 40.296875 32.984375 42.59375 35.390625 42.59375 38.390625 
C 42.59375 41.421875 39.5 44 34.5 44 
C 30.5 44 25.90625 42.1875 21.703125 36.484375 
C 21 41.5625 17 44 13 44 
C 9.09375 44 7.09375 41.28125 5.90625 39.1875 
C 4.203125 35.59375 2.703125 29.5625 2.703125 29.0625 
C 2.703125 28.65625 3.09375 28.140625 3.796875 28.140625 
C 4.59375 28.140625 4.703125 28.25 5.296875 30.578125 
C 6.796875 36.59375 8.703125 41.984375 12.703125 41.984375 
C 15.09375 41.984375 15.796875 40.6875 15.796875 37.796875 
C 15.796875 35.59375 14.796875 31.6875 14.09375 28.546875 
L 11.296875 17.65625 
C 10.90625 15.734375 9.796875 11.1875 9.296875 9.375 
C 8.59375 6.75 7.5 2 7.5 1.5 
C 7.5 0.09375 8.59375 -1 10.09375 -1 
C 11.203125 -1 13.09375 -0.3125 13.703125 1.703125 
C 14 2.5 17.703125 17.75 18.296875 20.078125 
C 18.796875 22.296875 19.40625 24.40625 19.90625 26.640625 
C 20.296875 28.046875 20.703125 29.65625 21 30.96875 
C 21.296875 31.875 24 36.796875 26.5 38.984375 
C 27.703125 40.09375 30.296875 41.984375 34.40625 41.984375 
C 36 41.984375 37.59375 41.78125 38.90625 41.140625 
z
" id="CMMI12-114"/>
     </defs>
     <g transform="translate(233.082741 338.896652)scale(0.14 -0.14)">
      <use transform="scale(0.996264)" xlink:href="#CMMI12-114"/>
     </g>
    </g>
   </g>
   <g id="matplotlib.axis_2">
    <g id="ytick_1">
     <g id="line2d_15">
      <path clip-path="url(#pb32b0d6475)" d="M 57.6 295.566611 
L 414.72 295.566611 
" style="fill:none;stroke:#b0b0b0;stroke-linecap:square;stroke-width:0.8;"/>
     </g>
     <g id="line2d_16">
      <defs>
       <path d="M 0 0 
L -3.5 0 
" id="m4e3ad00855" style="stroke:#000000;stroke-width:0.8;"/>
      </defs>
      <g>
       <use style="stroke:#000000;stroke-width:0.8;" x="57.6" xlink:href="#m4e3ad00855" y="295.566611"/>
      </g>
     </g>
     <g id="text_9">
      <!-- $0$ -->
      <g transform="translate(44.74701 299.717701)scale(0.12 -0.12)">
       <use transform="scale(0.996264)" xlink:href="#CMR17-48"/>
      </g>
     </g>
    </g>
    <g id="ytick_2">
     <g id="line2d_17">
      <path clip-path="url(#pb32b0d6475)" d="M 57.6 265.294324 
L 414.72 265.294324 
" style="fill:none;stroke:#b0b0b0;stroke-linecap:square;stroke-width:0.8;"/>
     </g>
     <g id="line2d_18">
      <g>
       <use style="stroke:#000000;stroke-width:0.8;" x="57.6" xlink:href="#m4e3ad00855" y="265.294324"/>
      </g>
     </g>
     <g id="text_10">
      <!-- $25$ -->
      <g transform="translate(38.894019 269.445414)scale(0.12 -0.12)">
       <use transform="scale(0.996264)" xlink:href="#CMR17-50"/>
       <use transform="translate(45.690477 0)scale(0.996264)" xlink:href="#CMR17-53"/>
      </g>
     </g>
    </g>
    <g id="ytick_3">
     <g id="line2d_19">
      <path clip-path="url(#pb32b0d6475)" d="M 57.6 235.022038 
L 414.72 235.022038 
" style="fill:none;stroke:#b0b0b0;stroke-linecap:square;stroke-width:0.8;"/>
     </g>
     <g id="line2d_20">
      <g>
       <use style="stroke:#000000;stroke-width:0.8;" x="57.6" xlink:href="#m4e3ad00855" y="235.022038"/>
      </g>
     </g>
     <g id="text_11">
      <!-- $50$ -->
      <g transform="translate(38.894019 239.173128)scale(0.12 -0.12)">
       <use transform="scale(0.996264)" xlink:href="#CMR17-53"/>
       <use transform="translate(45.690477 0)scale(0.996264)" xlink:href="#CMR17-48"/>
      </g>
     </g>
    </g>
    <g id="ytick_4">
     <g id="line2d_21">
      <path clip-path="url(#pb32b0d6475)" d="M 57.6 204.749752 
L 414.72 204.749752 
" style="fill:none;stroke:#b0b0b0;stroke-linecap:square;stroke-width:0.8;"/>
     </g>
     <g id="line2d_22">
      <g>
       <use style="stroke:#000000;stroke-width:0.8;" x="57.6" xlink:href="#m4e3ad00855" y="204.749752"/>
      </g>
     </g>
     <g id="text_12">
      <!-- $75$ -->
      <defs>
       <path d="M 45.09375 61.796875 
L 45.09375 64 
L 21.59375 64 
C 9.90625 64 9.703125 65.09375 9.296875 67 
L 7.5 67 
L 4.59375 48.5 
L 6.40625 48.5 
C 6.703125 50.40625 7.40625 55.5 8.59375 57.390625 
C 9.203125 58.1875 16.59375 58.1875 18.296875 58.1875 
L 40.296875 58.1875 
L 29.203125 41.71875 
C 21.796875 30.640625 16.703125 15.671875 16.703125 2.59375 
C 16.703125 1.390625 16.703125 -2 20.296875 -2 
C 23.90625 -2 23.90625 1.390625 23.90625 2.6875 
L 23.90625 7.28125 
C 23.90625 23.65625 26.703125 34.4375 31.296875 41.3125 
z
" id="CMR17-55"/>
      </defs>
      <g transform="translate(38.894019 208.900842)scale(0.12 -0.12)">
       <use transform="scale(0.996264)" xlink:href="#CMR17-55"/>
       <use transform="translate(45.690477 0)scale(0.996264)" xlink:href="#CMR17-53"/>
      </g>
     </g>
    </g>
    <g id="ytick_5">
     <g id="line2d_23">
      <path clip-path="url(#pb32b0d6475)" d="M 57.6 174.477465 
L 414.72 174.477465 
" style="fill:none;stroke:#b0b0b0;stroke-linecap:square;stroke-width:0.8;"/>
     </g>
     <g id="line2d_24">
      <g>
       <use style="stroke:#000000;stroke-width:0.8;" x="57.6" xlink:href="#m4e3ad00855" y="174.477465"/>
      </g>
     </g>
     <g id="text_13">
      <!-- $100$ -->
      <g transform="translate(33.041029 178.628555)scale(0.12 -0.12)">
       <use transform="scale(0.996264)" xlink:href="#CMR17-49"/>
       <use transform="translate(45.690477 0)scale(0.996264)" xlink:href="#CMR17-48"/>
       <use transform="translate(91.380954 0)scale(0.996264)" xlink:href="#CMR17-48"/>
      </g>
     </g>
    </g>
    <g id="ytick_6">
     <g id="line2d_25">
      <path clip-path="url(#pb32b0d6475)" d="M 57.6 144.205179 
L 414.72 144.205179 
" style="fill:none;stroke:#b0b0b0;stroke-linecap:square;stroke-width:0.8;"/>
     </g>
     <g id="line2d_26">
      <g>
       <use style="stroke:#000000;stroke-width:0.8;" x="57.6" xlink:href="#m4e3ad00855" y="144.205179"/>
      </g>
     </g>
     <g id="text_14">
      <!-- $125$ -->
      <g transform="translate(33.041029 148.356269)scale(0.12 -0.12)">
       <use transform="scale(0.996264)" xlink:href="#CMR17-49"/>
       <use transform="translate(45.690477 0)scale(0.996264)" xlink:href="#CMR17-50"/>
       <use transform="translate(91.380954 0)scale(0.996264)" xlink:href="#CMR17-53"/>
      </g>
     </g>
    </g>
    <g id="ytick_7">
     <g id="line2d_27">
      <path clip-path="url(#pb32b0d6475)" d="M 57.6 113.932893 
L 414.72 113.932893 
" style="fill:none;stroke:#b0b0b0;stroke-linecap:square;stroke-width:0.8;"/>
     </g>
     <g id="line2d_28">
      <g>
       <use style="stroke:#000000;stroke-width:0.8;" x="57.6" xlink:href="#m4e3ad00855" y="113.932893"/>
      </g>
     </g>
     <g id="text_15">
      <!-- $150$ -->
      <g transform="translate(33.041029 118.083983)scale(0.12 -0.12)">
       <use transform="scale(0.996264)" xlink:href="#CMR17-49"/>
       <use transform="translate(45.690477 0)scale(0.996264)" xlink:href="#CMR17-53"/>
       <use transform="translate(91.380954 0)scale(0.996264)" xlink:href="#CMR17-48"/>
      </g>
     </g>
    </g>
    <g id="ytick_8">
     <g id="line2d_29">
      <path clip-path="url(#pb32b0d6475)" d="M 57.6 83.660607 
L 414.72 83.660607 
" style="fill:none;stroke:#b0b0b0;stroke-linecap:square;stroke-width:0.8;"/>
     </g>
     <g id="line2d_30">
      <g>
       <use style="stroke:#000000;stroke-width:0.8;" x="57.6" xlink:href="#m4e3ad00855" y="83.660607"/>
      </g>
     </g>
     <g id="text_16">
      <!-- $175$ -->
      <g transform="translate(33.041029 87.811696)scale(0.12 -0.12)">
       <use transform="scale(0.996264)" xlink:href="#CMR17-49"/>
       <use transform="translate(45.690477 0)scale(0.996264)" xlink:href="#CMR17-55"/>
       <use transform="translate(91.380954 0)scale(0.996264)" xlink:href="#CMR17-53"/>
      </g>
     </g>
    </g>
    <g id="ytick_9">
     <g id="line2d_31">
      <path clip-path="url(#pb32b0d6475)" d="M 57.6 53.38832 
L 414.72 53.38832 
" style="fill:none;stroke:#b0b0b0;stroke-linecap:square;stroke-width:0.8;"/>
     </g>
     <g id="line2d_32">
      <g>
       <use style="stroke:#000000;stroke-width:0.8;" x="57.6" xlink:href="#m4e3ad00855" y="53.38832"/>
      </g>
     </g>
     <g id="text_17">
      <!-- $200$ -->
      <g transform="translate(33.041029 57.53941)scale(0.12 -0.12)">
       <use transform="scale(0.996264)" xlink:href="#CMR17-50"/>
       <use transform="translate(45.690477 0)scale(0.996264)" xlink:href="#CMR17-48"/>
       <use transform="translate(91.380954 0)scale(0.996264)" xlink:href="#CMR17-48"/>
      </g>
     </g>
    </g>
    <g id="text_18">
     <!-- $\displaystyle\log_q(V_r^{(n)})$ -->
     <defs>
      <path d="M 15.296875 69 
L 3.40625 67.890625 
L 3.40625 65.296875 
C 9.296875 65.296875 10.203125 64.703125 10.203125 59.921875 
L 10.203125 6.859375 
C 10.203125 3.09375 9.796875 2.59375 3.40625 2.59375 
L 3.40625 0 
C 5.796875 0.1875 10.203125 0.1875 12.703125 0.1875 
C 15.296875 0.1875 19.703125 0.1875 22.09375 0 
L 22.09375 2.59375 
C 15.703125 2.59375 15.296875 2.984375 15.296875 6.859375 
z
" id="CMR17-108"/>
      <path d="M 43.09375 21.1875 
C 43.09375 34 33.796875 44 22.90625 44 
C 12 44 2.703125 34 2.703125 21.1875 
C 2.703125 8.59375 12 -1 22.90625 -1 
C 33.796875 -1 43.09375 8.59375 43.09375 21.1875 
z
M 22.90625 0.796875 
C 18.203125 0.796875 14.203125 3.59375 11.90625 7.5 
C 9.40625 12 9.09375 17.59375 9.09375 22 
C 9.09375 26.1875 9.296875 31.390625 11.90625 35.890625 
C 13.90625 39.1875 17.796875 42.390625 22.90625 42.390625 
C 27.40625 42.390625 31.203125 39.890625 33.59375 36.390625 
C 36.703125 31.6875 36.703125 25.09375 36.703125 22 
C 36.703125 18.09375 36.5 12.09375 33.796875 7.296875 
C 31 2.6875 26.703125 0.796875 22.90625 0.796875 
z
" id="CMR17-111"/>
      <path d="M 11.09375 18.203125 
C 13 16.6875 16.296875 15 20.296875 15 
C 28.203125 15 35 21.234375 35 29.609375 
C 35 32.234375 34.203125 36.265625 31.203125 39.390625 
C 34 42.390625 38.09375 43.390625 40.40625 43.390625 
C 40.796875 43.390625 41.40625 43.390625 41.90625 43.09375 
C 41.5 42.984375 40.59375 42.59375 40.59375 40.984375 
C 40.59375 39.6875 41.5 38.796875 42.796875 38.796875 
C 44.296875 38.796875 45.09375 39.796875 45.09375 41.09375 
C 45.09375 42.984375 43.59375 45 40.40625 45 
C 36.40625 45 32.90625 43.09375 30.09375 40.484375 
C 27.09375 43.1875 23.5 44.1875 20.296875 44.1875 
C 12.40625 44.1875 5.59375 37.984375 5.59375 29.609375 
C 5.59375 23.859375 8.90625 20.21875 9.90625 19.21875 
C 6.90625 15.6875 6.90625 11.59375 6.90625 11.09375 
C 6.90625 8.5 7.90625 4.6875 11.296875 2.59375 
C 6.09375 1.28125 2 -2.875 2 -8.078125 
C 2 -15.5625 11.5 -21 22.90625 -21 
C 33.90625 -21 43.796875 -15.765625 43.796875 -7.96875 
C 43.796875 6 29 6 21.296875 6 
C 19 6 14.90625 6 14.40625 6.09375 
C 11.296875 6.59375 9.203125 9.390625 9.203125 12.890625 
C 9.203125 13.796875 9.203125 16 11.09375 18.203125 
z
M 20.296875 16.6875 
C 11.5 16.6875 11.5 27.59375 11.5 29.609375 
C 11.5 31.625 11.5 42.484375 20.296875 42.484375 
C 29.09375 42.484375 29.09375 31.625 29.09375 29.609375 
C 29.09375 27.59375 29.09375 16.6875 20.296875 16.6875 
z
M 22.90625 -19.3125 
C 12.90625 -19.3125 6 -13.796875 6 -8.078125 
C 6 -4.859375 7.703125 -1.84375 9.90625 -0.171875 
C 12.40625 1.59375 13.40625 1.59375 20.203125 1.59375 
C 28.40625 1.59375 39.796875 1.59375 39.796875 -8.078125 
C 39.796875 -13.796875 32.90625 -19.3125 22.90625 -19.3125 
z
" id="CMR17-103"/>
      <path d="M 44.09375 42.984375 
C 44.09375 43.484375 43.703125 43.890625 43.203125 43.890625 
C 42.40625 43.890625 38.5 40.296875 36.59375 36.8125 
C 34.796875 41.296875 31.703125 44 27.40625 44 
C 16.09375 44 3.90625 29.421875 3.90625 14.65625 
C 3.90625 4.78125 9.703125 -1 16.5 -1 
C 21.796875 -1 26.203125 2.984375 28.296875 5.28125 
L 28.40625 5.1875 
L 24.59375 -9.578125 
L 23.703125 -13.09375 
C 22.796875 -16.015625 21.296875 -16.015625 16.59375 -16.109375 
C 15.5 -16.109375 14.5 -16.109375 14.5 -18 
C 14.5 -18.703125 15.09375 -19 15.796875 -19 
C 17.203125 -19 19 -18.8125 20.40625 -18.8125 
L 30.59375 -18.8125 
C 32.09375 -18.8125 33.796875 -19 35.296875 -19 
C 35.90625 -19 37.09375 -19 37.09375 -17.109375 
C 37.09375 -16.109375 36.296875 -16.109375 34.796875 -16.109375 
C 30.09375 -16.109375 29.796875 -15.421875 29.796875 -14.640625 
C 29.796875 -14.15625 29.90625 -14.0625 30.203125 -12.796875 
z
M 30 11.859375 
C 29.5 10.171875 29.5 9.96875 28.09375 8.078125 
C 25.90625 5.28125 21.5 1 16.796875 1 
C 12.703125 1 10.40625 4.6875 10.40625 10.5625 
C 10.40625 16.0625 13.5 27.234375 15.40625 31.421875 
C 18.796875 38.40625 23.5 41.984375 27.40625 41.984375 
C 34 41.984375 35.296875 33.8125 35.296875 33.015625 
C 35.296875 32.921875 35 31.625 34.90625 31.421875 
z
" id="CMMI12-113"/>
      <path d="M 30.59375 -24.40625 
C 30.59375 -24.3125 30.59375 -24.109375 30.296875 -23.8125 
C 25.703125 -19.109375 13.40625 -6.296875 13.40625 24.9375 
C 13.40625 56.171875 25.5 68.875 30.40625 73.890625 
C 30.40625 73.984375 30.59375 74.1875 30.59375 74.484375 
C 30.59375 74.796875 30.296875 75 29.90625 75 
C 28.796875 75 20.296875 67.578125 15.40625 56.5625 
C 10.40625 45.453125 9 34.65625 9 25.046875 
C 9 17.828125 9.703125 5.625 15.703125 -7.296875 
C 20.5 -17.703125 28.703125 -25 29.90625 -25 
C 30.40625 -25 30.59375 -24.8125 30.59375 -24.40625 
z
" id="CMR17-40"/>
      <path d="M 61.90625 56.9375 
C 65.296875 62.296875 68.40625 64.6875 73.5 65.09375 
C 74.5 65.1875 75.296875 65.1875 75.296875 66.984375 
C 75.296875 67.390625 75.09375 68 74.203125 68 
C 72.40625 68 68.09375 67.796875 66.296875 67.796875 
C 63.40625 67.796875 60.40625 68 57.59375 68 
C 56.796875 68 55.796875 68 55.796875 66.09375 
C 55.796875 65.1875 56.703125 65.09375 57.09375 65.09375 
C 60.796875 64.78125 61.203125 63 61.203125 61.8125 
C 61.203125 60.3125 59.796875 58.03125 59.703125 57.9375 
L 28.296875 8.4375 
L 21.296875 62 
C 21.296875 64.890625 26.5 65.09375 27.59375 65.09375 
C 29.09375 65.09375 30 65.09375 30 66.984375 
C 30 68 28.90625 68 28.59375 68 
C 26.90625 68 24.90625 67.796875 23.203125 67.796875 
L 17.59375 67.796875 
C 10.296875 67.796875 7.296875 68 7.203125 68 
C 6.59375 68 5.40625 68 5.40625 66.1875 
C 5.40625 65.09375 6.09375 65.09375 7.703125 65.09375 
C 12.796875 65.09375 13.09375 64.1875 13.40625 61.703125 
L 21.40625 0.390625 
C 21.703125 -1.703125 21.703125 -2 23.09375 -2 
C 24.296875 -2 24.796875 -1.703125 25.796875 -0.109375 
z
" id="CMMI12-86"/>
      <path d="M 20.59375 29.21875 
C 20.796875 29.828125 23.296875 34.8125 27 38 
C 29.59375 40.390625 33 41.984375 36.90625 41.984375 
C 40.90625 41.984375 42.296875 39 42.296875 35.015625 
C 42.296875 29.328125 38.203125 17.953125 36.203125 12.5625 
C 35.296875 10.171875 34.796875 8.875 34.796875 7.078125 
C 34.796875 2.59375 37.90625 -1 42.703125 -1 
C 52 -1 55.5 13.65625 55.5 14.265625 
C 55.5 14.765625 55.09375 15.15625 54.5 15.15625 
C 53.59375 15.15625 53.5 14.859375 53 13.15625 
C 50.703125 4.984375 46.90625 1 43 1 
C 42 1 40.40625 1.09375 40.40625 4.28125 
C 40.40625 6.78125 41.5 9.765625 42.09375 11.171875 
C 44.09375 16.65625 48.296875 27.828125 48.296875 33.515625 
C 48.296875 39.5 44.796875 44 37.203125 44 
C 28.296875 44 23.59375 37.703125 21.796875 35.203125 
C 21.5 40.890625 17.40625 44 13 44 
C 9.796875 44 7.59375 42.09375 5.90625 38.703125 
C 4.09375 35.109375 2.703125 29.125 2.703125 28.71875 
C 2.703125 28.328125 3.09375 27.828125 3.796875 27.828125 
C 4.59375 27.828125 4.703125 27.921875 5.296875 30.21875 
C 6.90625 36.3125 8.703125 41.984375 12.703125 41.984375 
C 15 41.984375 15.796875 40.390625 15.796875 37.40625 
C 15.796875 35.203125 14.796875 31.3125 14.09375 28.234375 
L 11.296875 17.453125 
C 10.90625 15.5625 9.796875 11.0625 9.296875 9.265625 
C 8.59375 6.671875 7.5 1.984375 7.5 1.484375 
C 7.5 0.09375 8.59375 -1 10.09375 -1 
C 11.296875 -1 12.703125 -0.40625 13.5 1.09375 
C 13.703125 1.59375 14.59375 5.078125 15.09375 7.078125 
L 17.296875 16.0625 
z
" id="CMMI12-110"/>
      <path d="M 26.296875 24.9375 
C 26.296875 32.140625 25.59375 44.359375 19.59375 57.265625 
C 14.796875 67.6875 6.59375 75 5.40625 75 
C 5.09375 75 4.703125 74.890625 4.703125 74.390625 
C 4.703125 74.1875 4.796875 74.09375 4.90625 73.890625 
C 9.703125 68.875 21.90625 56.171875 21.90625 25.046875 
C 21.90625 -6.1875 9.796875 -18.90625 4.90625 -23.90625 
C 4.796875 -24.109375 4.703125 -24.203125 4.703125 -24.40625 
C 4.703125 -24.90625 5.09375 -25 5.40625 -25 
C 6.5 -25 15 -17.609375 19.90625 -6.59375 
C 24.90625 4.515625 26.296875 15.328125 26.296875 24.9375 
z
" id="CMR17-41"/>
     </defs>
     <g transform="translate(26.329001 204.001352)rotate(-90)scale(0.14 -0.14)">
      <use transform="translate(0 24.62935)scale(0.996264)" xlink:href="#CMR17-108"/>
      <use transform="translate(24.871058 24.62935)scale(0.996264)" xlink:href="#CMR17-111"/>
      <use transform="translate(70.561536 24.62935)scale(0.996264)" xlink:href="#CMR17-103"/>
      <use transform="translate(117.553179 1.764258)scale(0.697382)" xlink:href="#CMMI12-113"/>
      <use transform="translate(150.829576 24.62935)scale(0.996264)" xlink:href="#CMR17-40"/>
      <use transform="translate(186.110344 24.62935)scale(0.996264)" xlink:href="#CMMI12-86"/>
      <use transform="translate(264.657665 65.764324)scale(0.697382)" xlink:href="#CMR17-40"/>
      <use transform="translate(289.354085 65.764324)scale(0.697382)" xlink:href="#CMMI12-110"/>
      <use transform="translate(330.114929 65.764324)scale(0.697382)" xlink:href="#CMR17-41"/>
      <use transform="translate(242.979923 0)scale(0.697382)" xlink:href="#CMMI12-114"/>
      <use transform="translate(355.309481 24.62935)scale(0.996264)" xlink:href="#CMR17-41"/>
     </g>
    </g>
   </g>
   <g id="line2d_33">
    <path clip-path="url(#pb32b0d6475)" d="M 73.832727 291.517511 
L 85.027712 262.855467 
L 96.222696 241.20954 
L 107.41768 222.839084 
L 118.612665 206.66404 
L 129.807649 192.150267 
L 141.002633 178.977955 
L 152.197618 166.934361 
L 163.392602 155.868085 
L 174.587586 145.666202 
L 185.782571 136.241523 
L 196.977555 127.524939 
L 208.172539 119.460536 
L 219.367524 112.002331 
L 230.562508 105.112016 
L 241.757492 98.757336 
L 252.952476 92.910909 
L 264.147461 87.549331 
L 275.342445 82.652494 
L 286.537429 78.203042 
L 297.732414 74.185934 
L 308.927398 70.588064 
L 320.122382 67.39791 
L 331.317367 64.605165 
L 342.512351 62.200291 
L 353.707335 60.173908 
L 364.90232 58.515842 
L 376.097304 57.213552 
L 387.292288 56.249419 
L 398.487273 55.596177 
" style="fill:none;stroke:#0000ff;stroke-linecap:square;"/>
    <defs>
     <path d="M 0 1.5 
C 0.397805 1.5 0.77937 1.341951 1.06066 1.06066 
C 1.341951 0.77937 1.5 0.397805 1.5 0 
C 1.5 -0.397805 1.341951 -0.77937 1.06066 -1.06066 
C 0.77937 -1.341951 0.397805 -1.5 0 -1.5 
C -0.397805 -1.5 -0.77937 -1.341951 -1.06066 -1.06066 
C -1.341951 -0.77937 -1.5 -0.397805 -1.5 0 
C -1.5 0.397805 -1.341951 0.77937 -1.06066 1.06066 
C -0.77937 1.341951 -0.397805 1.5 0 1.5 
z
" id="mf7f83c37cf" style="stroke:#0000ff;"/>
    </defs>
    <g clip-path="url(#pb32b0d6475)">
     <use style="fill:#0000ff;stroke:#0000ff;" x="73.832727" xlink:href="#mf7f83c37cf" y="291.517511"/>
     <use style="fill:#0000ff;stroke:#0000ff;" x="85.027712" xlink:href="#mf7f83c37cf" y="262.855467"/>
     <use style="fill:#0000ff;stroke:#0000ff;" x="96.222696" xlink:href="#mf7f83c37cf" y="241.20954"/>
     <use style="fill:#0000ff;stroke:#0000ff;" x="107.41768" xlink:href="#mf7f83c37cf" y="222.839084"/>
     <use style="fill:#0000ff;stroke:#0000ff;" x="118.612665" xlink:href="#mf7f83c37cf" y="206.66404"/>
     <use style="fill:#0000ff;stroke:#0000ff;" x="129.807649" xlink:href="#mf7f83c37cf" y="192.150267"/>
     <use style="fill:#0000ff;stroke:#0000ff;" x="141.002633" xlink:href="#mf7f83c37cf" y="178.977955"/>
     <use style="fill:#0000ff;stroke:#0000ff;" x="152.197618" xlink:href="#mf7f83c37cf" y="166.934361"/>
     <use style="fill:#0000ff;stroke:#0000ff;" x="163.392602" xlink:href="#mf7f83c37cf" y="155.868085"/>
     <use style="fill:#0000ff;stroke:#0000ff;" x="174.587586" xlink:href="#mf7f83c37cf" y="145.666202"/>
     <use style="fill:#0000ff;stroke:#0000ff;" x="185.782571" xlink:href="#mf7f83c37cf" y="136.241523"/>
     <use style="fill:#0000ff;stroke:#0000ff;" x="196.977555" xlink:href="#mf7f83c37cf" y="127.524939"/>
     <use style="fill:#0000ff;stroke:#0000ff;" x="208.172539" xlink:href="#mf7f83c37cf" y="119.460536"/>
     <use style="fill:#0000ff;stroke:#0000ff;" x="219.367524" xlink:href="#mf7f83c37cf" y="112.002331"/>
     <use style="fill:#0000ff;stroke:#0000ff;" x="230.562508" xlink:href="#mf7f83c37cf" y="105.112016"/>
     <use style="fill:#0000ff;stroke:#0000ff;" x="241.757492" xlink:href="#mf7f83c37cf" y="98.757336"/>
     <use style="fill:#0000ff;stroke:#0000ff;" x="252.952476" xlink:href="#mf7f83c37cf" y="92.910909"/>
     <use style="fill:#0000ff;stroke:#0000ff;" x="264.147461" xlink:href="#mf7f83c37cf" y="87.549331"/>
     <use style="fill:#0000ff;stroke:#0000ff;" x="275.342445" xlink:href="#mf7f83c37cf" y="82.652494"/>
     <use style="fill:#0000ff;stroke:#0000ff;" x="286.537429" xlink:href="#mf7f83c37cf" y="78.203042"/>
     <use style="fill:#0000ff;stroke:#0000ff;" x="297.732414" xlink:href="#mf7f83c37cf" y="74.185934"/>
     <use style="fill:#0000ff;stroke:#0000ff;" x="308.927398" xlink:href="#mf7f83c37cf" y="70.588064"/>
     <use style="fill:#0000ff;stroke:#0000ff;" x="320.122382" xlink:href="#mf7f83c37cf" y="67.39791"/>
     <use style="fill:#0000ff;stroke:#0000ff;" x="331.317367" xlink:href="#mf7f83c37cf" y="64.605165"/>
     <use style="fill:#0000ff;stroke:#0000ff;" x="342.512351" xlink:href="#mf7f83c37cf" y="62.200291"/>
     <use style="fill:#0000ff;stroke:#0000ff;" x="353.707335" xlink:href="#mf7f83c37cf" y="60.173908"/>
     <use style="fill:#0000ff;stroke:#0000ff;" x="364.90232" xlink:href="#mf7f83c37cf" y="58.515842"/>
     <use style="fill:#0000ff;stroke:#0000ff;" x="376.097304" xlink:href="#mf7f83c37cf" y="57.213552"/>
     <use style="fill:#0000ff;stroke:#0000ff;" x="387.292288" xlink:href="#mf7f83c37cf" y="56.249419"/>
     <use style="fill:#0000ff;stroke:#0000ff;" x="398.487273" xlink:href="#mf7f83c37cf" y="55.596177"/>
    </g>
   </g>
   <g id="line2d_34">
    <path clip-path="url(#pb32b0d6475)" d="M 73.832727 219.269297 
L 85.027712 208.394877 
L 96.222696 197.889082 
L 107.41768 187.751911 
L 118.612665 177.983365 
L 129.807649 168.583443 
L 141.002633 159.552145 
L 152.197618 150.889472 
L 163.392602 142.595423 
L 174.587586 134.669999 
L 185.782571 127.113199 
L 196.977555 119.925023 
L 208.172539 113.105472 
L 219.367524 106.654545 
L 230.562508 100.572243 
L 241.757492 94.858564 
L 252.952476 89.513511 
L 264.147461 84.537081 
L 275.342445 79.929277 
L 286.537429 75.690096 
L 297.732414 71.81954 
L 308.927398 68.317608 
L 320.122382 65.184301 
L 331.317367 62.419618 
L 342.512351 60.023559 
L 353.707335 57.996125 
L 364.90232 56.337315 
L 376.097304 55.04713 
L 387.292288 54.125569 
L 398.487273 53.572632 
" style="fill:none;"/>
    <defs>
     <path d="M 0 -1 
L -1 1 
L 1 1 
z
" id="mc3b32a0ae8" style="stroke:#ff0000;stroke-linejoin:miter;"/>
    </defs>
    <g clip-path="url(#pb32b0d6475)">
     <use style="fill:#ff0000;stroke:#ff0000;stroke-linejoin:miter;" x="73.832727" xlink:href="#mc3b32a0ae8" y="219.269297"/>
     <use style="fill:#ff0000;stroke:#ff0000;stroke-linejoin:miter;" x="85.027712" xlink:href="#mc3b32a0ae8" y="208.394877"/>
     <use style="fill:#ff0000;stroke:#ff0000;stroke-linejoin:miter;" x="96.222696" xlink:href="#mc3b32a0ae8" y="197.889082"/>
     <use style="fill:#ff0000;stroke:#ff0000;stroke-linejoin:miter;" x="107.41768" xlink:href="#mc3b32a0ae8" y="187.751911"/>
     <use style="fill:#ff0000;stroke:#ff0000;stroke-linejoin:miter;" x="118.612665" xlink:href="#mc3b32a0ae8" y="177.983365"/>
     <use style="fill:#ff0000;stroke:#ff0000;stroke-linejoin:miter;" x="129.807649" xlink:href="#mc3b32a0ae8" y="168.583443"/>
     <use style="fill:#ff0000;stroke:#ff0000;stroke-linejoin:miter;" x="141.002633" xlink:href="#mc3b32a0ae8" y="159.552145"/>
     <use style="fill:#ff0000;stroke:#ff0000;stroke-linejoin:miter;" x="152.197618" xlink:href="#mc3b32a0ae8" y="150.889472"/>
     <use style="fill:#ff0000;stroke:#ff0000;stroke-linejoin:miter;" x="163.392602" xlink:href="#mc3b32a0ae8" y="142.595423"/>
     <use style="fill:#ff0000;stroke:#ff0000;stroke-linejoin:miter;" x="174.587586" xlink:href="#mc3b32a0ae8" y="134.669999"/>
     <use style="fill:#ff0000;stroke:#ff0000;stroke-linejoin:miter;" x="185.782571" xlink:href="#mc3b32a0ae8" y="127.113199"/>
     <use style="fill:#ff0000;stroke:#ff0000;stroke-linejoin:miter;" x="196.977555" xlink:href="#mc3b32a0ae8" y="119.925023"/>
     <use style="fill:#ff0000;stroke:#ff0000;stroke-linejoin:miter;" x="208.172539" xlink:href="#mc3b32a0ae8" y="113.105472"/>
     <use style="fill:#ff0000;stroke:#ff0000;stroke-linejoin:miter;" x="219.367524" xlink:href="#mc3b32a0ae8" y="106.654545"/>
     <use style="fill:#ff0000;stroke:#ff0000;stroke-linejoin:miter;" x="230.562508" xlink:href="#mc3b32a0ae8" y="100.572243"/>
     <use style="fill:#ff0000;stroke:#ff0000;stroke-linejoin:miter;" x="241.757492" xlink:href="#mc3b32a0ae8" y="94.858564"/>
     <use style="fill:#ff0000;stroke:#ff0000;stroke-linejoin:miter;" x="252.952476" xlink:href="#mc3b32a0ae8" y="89.513511"/>
     <use style="fill:#ff0000;stroke:#ff0000;stroke-linejoin:miter;" x="264.147461" xlink:href="#mc3b32a0ae8" y="84.537081"/>
     <use style="fill:#ff0000;stroke:#ff0000;stroke-linejoin:miter;" x="275.342445" xlink:href="#mc3b32a0ae8" y="79.929277"/>
     <use style="fill:#ff0000;stroke:#ff0000;stroke-linejoin:miter;" x="286.537429" xlink:href="#mc3b32a0ae8" y="75.690096"/>
     <use style="fill:#ff0000;stroke:#ff0000;stroke-linejoin:miter;" x="297.732414" xlink:href="#mc3b32a0ae8" y="71.81954"/>
     <use style="fill:#ff0000;stroke:#ff0000;stroke-linejoin:miter;" x="308.927398" xlink:href="#mc3b32a0ae8" y="68.317608"/>
     <use style="fill:#ff0000;stroke:#ff0000;stroke-linejoin:miter;" x="320.122382" xlink:href="#mc3b32a0ae8" y="65.184301"/>
     <use style="fill:#ff0000;stroke:#ff0000;stroke-linejoin:miter;" x="331.317367" xlink:href="#mc3b32a0ae8" y="62.419618"/>
     <use style="fill:#ff0000;stroke:#ff0000;stroke-linejoin:miter;" x="342.512351" xlink:href="#mc3b32a0ae8" y="60.023559"/>
     <use style="fill:#ff0000;stroke:#ff0000;stroke-linejoin:miter;" x="353.707335" xlink:href="#mc3b32a0ae8" y="57.996125"/>
     <use style="fill:#ff0000;stroke:#ff0000;stroke-linejoin:miter;" x="364.90232" xlink:href="#mc3b32a0ae8" y="56.337315"/>
     <use style="fill:#ff0000;stroke:#ff0000;stroke-linejoin:miter;" x="376.097304" xlink:href="#mc3b32a0ae8" y="55.04713"/>
     <use style="fill:#ff0000;stroke:#ff0000;stroke-linejoin:miter;" x="387.292288" xlink:href="#mc3b32a0ae8" y="54.125569"/>
     <use style="fill:#ff0000;stroke:#ff0000;stroke-linejoin:miter;" x="398.487273" xlink:href="#mc3b32a0ae8" y="53.572632"/>
    </g>
   </g>
   <g id="line2d_35">
    <path clip-path="url(#pb32b0d6475)" d="M 73.832727 295.475927 
L 85.027712 263.879328 
L 96.222696 241.564927 
L 107.41768 222.794876 
L 118.612665 206.334195 
L 129.807649 191.597902 
L 141.002633 178.242654 
L 152.197618 166.04479 
L 163.392602 154.844448 
L 174.587586 144.522387 
L 185.782571 134.991639 
L 196.977555 126.180027 
L 208.172539 118.026848 
L 219.367524 110.488566 
L 230.562508 103.522478 
L 241.757492 97.098197 
L 252.952476 91.185218 
L 264.147461 85.762484 
L 275.342445 80.805721 
L 286.537429 76.300097 
L 297.732414 72.23133 
L 308.927398 68.585846 
L 320.122382 65.350939 
L 331.317367 62.514932 
L 342.512351 60.074524 
L 353.707335 58.020485 
L 364.90232 56.346123 
L 376.097304 55.049384 
L 387.292288 54.125667 
L 398.487273 53.57008 
" style="fill:none;stroke:#008000;stroke-linecap:square;stroke-width:1.5;"/>
   </g>
   <g id="line2d_36">
    <path clip-path="url(#pb32b0d6475)" d="M 73.832727 295.488 
L 85.027712 263.781953 
L 96.222696 241.555781 
L 107.41768 222.794676 
L 118.612665 206.326162 
L 129.807649 191.582775 
L 141.002633 178.22582 
L 152.197618 166.029776 
L 163.392602 154.833997 
L 174.587586 144.518727 
L 185.782571 134.991766 
L 196.977555 126.180426 
L 208.172539 118.02636 
L 219.367524 110.482073 
L 230.562508 103.508478 
L 241.757492 97.073112 
L 252.952476 91.148808 
L 264.147461 85.712678 
L 275.342445 80.745319 
L 286.537429 76.230184 
L 297.732414 72.153078 
L 308.927398 68.501745 
L 320.122382 65.265531 
L 331.317367 62.435106 
L 342.512351 60.002236 
L 353.707335 57.95959 
L 364.90232 56.300579 
L 376.097304 55.019227 
L 387.292288 54.110057 
L 398.487273 53.568 
" style="fill:none;stroke:#000000;stroke-dasharray:7.4,3.2;stroke-dashoffset:0;stroke-width:2;"/>
   </g>
   <g id="patch_3">
    <path d="M 57.6 307.584 
L 57.6 41.472 
" style="fill:none;stroke:#000000;stroke-linecap:square;stroke-linejoin:miter;stroke-width:0.8;"/>
   </g>
   <g id="patch_4">
    <path d="M 414.72 307.584 
L 414.72 41.472 
" style="fill:none;stroke:#000000;stroke-linecap:square;stroke-linejoin:miter;stroke-width:0.8;"/>
   </g>
   <g id="patch_5">
    <path d="M 57.6 307.584 
L 414.72 307.584 
" style="fill:none;stroke:#000000;stroke-linecap:square;stroke-linejoin:miter;stroke-width:0.8;"/>
   </g>
   <g id="patch_6">
    <path d="M 57.6 41.472 
L 414.72 41.472 
" style="fill:none;stroke:#000000;stroke-linecap:square;stroke-linejoin:miter;stroke-width:0.8;"/>
   </g>
   <g id="legend_1">
    <g id="patch_7">
     <path d="M 217.341386 302.584 
L 407.72 302.584 
Q 409.72 302.584 409.72 300.584 
L 409.72 231.97961 
Q 409.72 229.97961 407.72 229.97961 
L 217.341386 229.97961 
Q 215.341386 229.97961 215.341386 231.97961 
L 215.341386 300.584 
Q 215.341386 302.584 217.341386 302.584 
z
" style="fill:#ffffff;opacity:0.8;stroke:#cccccc;stroke-linejoin:miter;"/>
    </g>
    <g id="text_19">
     <!-- $\displaystyle n = 200$, $\displaystyle q = 6$ -->
     <defs>
      <path d="M 64.296875 32 
C 65.796875 32 67.296875 32 67.296875 33.6875 
C 67.296875 35.5 65.59375 35.5 63.90625 35.5 
L 8 35.5 
C 6.296875 35.5 4.59375 35.5 4.59375 33.6875 
C 4.59375 32 6.09375 32 7.59375 32 
z
M 63.90625 14.484375 
C 65.59375 14.484375 67.296875 14.484375 67.296875 16.296875 
C 67.296875 18 65.796875 18 64.296875 18 
L 7.59375 18 
C 6.09375 18 4.59375 18 4.59375 16.296875 
C 4.59375 14.484375 6.296875 14.484375 8 14.484375 
z
" id="CMR17-61"/>
      <path d="M 15.796875 1.59375 
C 16 0.6875 16 0.390625 16 -1.1875 
C 16 -7.046875 14 -12.421875 9.796875 -17.3125 
C 9.296875 -17.8125 9.296875 -18 9.296875 -18.203125 
C 9.296875 -18.609375 9.703125 -19 10.09375 -19 
C 10.703125 -19 17.59375 -12.125 17.59375 -1.28125 
C 17.59375 2 17.203125 8.1875 12.5 8.1875 
C 10.296875 8.1875 8.40625 6.6875 8.40625 4.09375 
C 8.40625 1.5 10.296875 0 12.5 0 
C 13.703125 0 15 0.5 15.796875 1.59375 
z
" id="CMR17-44"/>
      <path d="M 10.59375 34.34375 
C 10.59375 58 21.796875 63.6875 28.296875 63.6875 
C 30.40625 63.6875 35.5 63.265625 37.5 59.09375 
C 35.90625 59.09375 32.90625 59.09375 32.90625 55.59375 
C 32.90625 52.890625 35.09375 52 36.5 52 
C 37.40625 52 40.09375 52.390625 40.09375 55.796875 
C 40.09375 62.296875 35.09375 66 28.203125 66 
C 16.296875 66 3.796875 53.296875 3.796875 31.421875 
C 3.796875 4.015625 15.09375 -2 23.09375 -2 
C 32.796875 -2 42 6.734375 42 20.234375 
C 42 32.828125 33.90625 42 23.703125 42 
C 17.59375 42 13.09375 37.96875 10.59375 30.921875 
z
M 23.09375 0.390625 
C 10.796875 0.390625 10.796875 18.9375 10.796875 22.65625 
C 10.796875 29.90625 14.203125 40.390625 23.5 40.390625 
C 25.203125 40.390625 30.09375 40.390625 33.40625 33.4375 
C 35.203125 29.515625 35.203125 25.375 35.203125 20.34375 
C 35.203125 14.90625 35.203125 10.875 33.09375 6.84375 
C 30.90625 2.703125 27.703125 0.390625 23.09375 0.390625 
z
" id="CMR17-54"/>
     </defs>
     <g transform="translate(280.848065 240.898108)scale(0.1 -0.1)">
      <use transform="scale(0.996264)" xlink:href="#CMMI12-110"/>
      <use transform="translate(85.904056 0)scale(0.996264)" xlink:href="#CMR17-61"/>
      <use transform="translate(185.292853 0)scale(0.996264)" xlink:href="#CMR17-50"/>
      <use transform="translate(230.98333 0)scale(0.996264)" xlink:href="#CMR17-48"/>
      <use transform="translate(276.673807 0)scale(0.996264)" xlink:href="#CMR17-48"/>
      <use transform="translate(322.364285 0)scale(0.996264)" xlink:href="#CMR17-44"/>
      <use transform="translate(377.311309 0)scale(0.996264)" xlink:href="#CMMI12-113"/>
      <use transform="translate(451.811642 0)scale(0.996264)" xlink:href="#CMR17-61"/>
      <use transform="translate(551.200439 0)scale(0.996264)" xlink:href="#CMR17-54"/>
     </g>
    </g>
    <g id="line2d_37">
     <path d="M 219.341386 251.335287 
L 239.341386 251.335287 
" style="fill:none;stroke:#0000ff;stroke-linecap:square;"/>
    </g>
    <g id="line2d_38">
     <g>
      <use style="fill:#0000ff;stroke:#0000ff;" x="229.341386" xlink:href="#mf7f83c37cf" y="251.335287"/>
     </g>
    </g>
    <g id="text_20">
     <!-- Numerical Simulation -->
     <defs>
      <path d="M 20.5 66.796875 
C 19.796875 67.890625 19.703125 68 17.796875 68 
L 5.09375 68 
L 5.09375 65.390625 
L 7 65.390625 
C 11 65.390625 12.796875 64.890625 13.09375 64.796875 
L 13.09375 9.75 
C 13.09375 7.265625 13.09375 2.59375 5.09375 2.59375 
L 5.09375 0 
C 7.40625 0.1875 11.59375 0.1875 14.09375 0.1875 
C 16.59375 0.1875 20.796875 0.1875 23.09375 0 
L 23.09375 2.59375 
C 15.09375 2.59375 15.09375 7.265625 15.09375 9.75 
L 15.09375 63.390625 
C 15.796875 62.796875 15.796875 62.609375 16.5 61.609375 
L 53.59375 1.1875 
C 54.296875 0 54.59375 0 55.09375 0 
C 56.09375 0 56.09375 0.296875 56.09375 2.1875 
L 56.09375 58.21875 
C 56.09375 60.703125 56.09375 65.390625 64.09375 65.390625 
L 64.09375 68 
C 61.796875 67.796875 57.59375 67.796875 55.09375 67.796875 
C 52.59375 67.796875 48.40625 67.796875 46.09375 68 
L 46.09375 65.390625 
C 54.09375 65.390625 54.09375 60.703125 54.09375 58.21875 
L 54.09375 12.140625 
z
" id="CMR17-78"/>
      <path d="M 29.40625 42.890625 
L 29.40625 40.296875 
C 35.296875 40.296875 36.203125 39.6875 36.203125 34.828125 
L 36.203125 16.453125 
C 36.203125 7.96875 31.703125 0.59375 24.296875 0.59375 
C 16.09375 0.59375 15.40625 5.546875 15.40625 10.796875 
L 15.40625 44 
L 3.296875 42.890625 
L 3.296875 40.296875 
C 7.296875 40.296875 10 40.296875 10.09375 36.25 
L 10.09375 16.859375 
C 10.09375 10.09375 10.09375 5.75 12.703125 2.921875 
C 14 1.609375 16.5 -1 23.703125 -1 
C 32.203125 -1 35.5 6.25 36.296875 8.375 
L 36.40625 8.375 
L 36.40625 -1 
L 48.296875 -0.203125 
L 48.296875 2.40625 
C 42.40625 2.40625 41.5 3.015625 41.5 7.859375 
L 41.5 44 
z
" id="CMR17-117"/>
      <path d="M 67.59375 30.53125 
C 67.59375 35.5625 66.703125 44 54.796875 44 
C 48 44 43.296875 39.375 41.5 33.953125 
L 41.40625 33.953125 
C 40.203125 42.1875 34.296875 44 28.703125 44 
C 20.796875 44 16.703125 37.875 15.203125 33.84375 
L 15.09375 33.84375 
L 15.09375 44 
L 3.296875 42.890625 
L 3.296875 40.28125 
C 9.203125 40.28125 10.09375 39.6875 10.09375 34.859375 
L 10.09375 6.921875 
C 10.09375 3.09375 9.703125 2.59375 3.296875 2.59375 
L 3.296875 0 
C 5.703125 0.1875 10.09375 0.1875 12.703125 0.1875 
C 15.296875 0.1875 19.796875 0.1875 22.203125 0 
L 22.203125 2.59375 
C 15.796875 2.59375 15.40625 3 15.40625 6.921875 
L 15.40625 26.21875 
C 15.40625 35.453125 21 42.390625 28 42.390625 
C 35.40625 42.390625 36.203125 35.765625 36.203125 30.9375 
L 36.203125 6.921875 
C 36.203125 3.09375 35.796875 2.59375 29.40625 2.59375 
L 29.40625 0 
C 31.796875 0.1875 36.203125 0.1875 38.796875 0.1875 
C 41.40625 0.1875 45.90625 0.1875 48.296875 0 
L 48.296875 2.59375 
C 41.90625 2.59375 41.5 3 41.5 6.921875 
L 41.5 26.21875 
C 41.5 35.453125 47.09375 42.390625 54.09375 42.390625 
C 61.5 42.390625 62.296875 35.765625 62.296875 30.9375 
L 62.296875 6.921875 
C 62.296875 3.09375 61.90625 2.59375 55.5 2.59375 
L 55.5 0 
C 57.90625 0.1875 62.296875 0.1875 64.90625 0.1875 
C 67.5 0.1875 72 0.1875 74.40625 0 
L 74.40625 2.59375 
C 68 2.59375 67.59375 3 67.59375 6.921875 
z
" id="CMR17-109"/>
      <path d="M 38.09375 23.484375 
C 38.5 23.890625 38.5 24.09375 38.5 25.09375 
C 38.5 35.171875 33.09375 44 21.703125 44 
C 11.09375 44 2.703125 33.984375 2.703125 21.78125 
C 2.703125 8.65625 12.203125 -1 22.796875 -1 
C 34 -1 38.40625 9.671875 38.40625 11.796875 
C 38.40625 12.5 37.796875 12.5 37.59375 12.5 
C 36.90625 12.5 36.796875 12.296875 36.40625 11.078125 
C 34.203125 4.21875 28.703125 0.796875 23.5 0.796875 
C 19.203125 0.796875 14.90625 3.21875 12.203125 7.65625 
C 9.09375 12.796875 9.09375 18.75 9.09375 23.484375 
z
M 9.203125 25 
C 9.90625 39.234375 17.59375 42.390625 21.59375 42.390625 
C 28.40625 42.390625 33 36.0625 33.09375 25 
z
" id="CMR17-101"/>
      <path d="M 15 23.703125 
C 15 33.34375 19.09375 42.390625 26.59375 42.390625 
C 27.296875 42.390625 28 42.296875 28.703125 41.984375 
C 28.703125 41.984375 26.5 41.28125 26.5 38.671875 
C 26.5 36.265625 28.40625 35.265625 29.90625 35.265625 
C 31.09375 35.265625 33.296875 35.96875 33.296875 38.78125 
C 33.296875 41.984375 30.09375 44 26.703125 44 
C 19.09375 44 15.796875 36.5625 14.796875 33.046875 
L 14.703125 33.046875 
L 14.703125 44 
L 3.09375 42.890625 
L 3.09375 40.28125 
C 9 40.28125 9.90625 39.6875 9.90625 34.859375 
L 9.90625 6.921875 
C 9.90625 3.09375 9.5 2.59375 3.09375 2.59375 
L 3.09375 0 
C 5.5 0.1875 10.09375 0.1875 12.703125 0.1875 
C 15.59375 0.1875 20.703125 0.1875 23.40625 0 
L 23.40625 2.59375 
C 16.203125 2.59375 15 2.59375 15 7.109375 
z
" id="CMR17-114"/>
      <path d="M 15.5 61.890625 
C 15.5 64.09375 13.703125 66 11.40625 66 
C 9.203125 66 7.296875 64.1875 7.296875 61.890625 
C 7.296875 59.6875 9.09375 57.796875 11.40625 57.796875 
C 13.59375 57.796875 15.5 59.59375 15.5 61.890625 
z
M 3.796875 42.890625 
L 3.796875 40.296875 
C 9.40625 40.296875 10.203125 39.6875 10.203125 34.859375 
L 10.203125 6.921875 
C 10.203125 3.09375 9.796875 2.59375 3.40625 2.59375 
L 3.40625 0 
C 5.796875 0.1875 10.09375 0.1875 12.59375 0.1875 
C 15 0.1875 19.09375 0.1875 21.40625 0 
L 21.40625 2.59375 
C 15.5 2.59375 15.296875 3.203125 15.296875 6.8125 
L 15.296875 44 
z
" id="CMR17-105"/>
      <path d="M 34.90625 35 
C 33 35 30.203125 35 30.203125 31.484375 
C 30.203125 28.6875 32.5 27.890625 33.796875 27.890625 
C 34.5 27.890625 37.40625 28.1875 37.40625 31.6875 
C 37.40625 38.6875 30.59375 44 22.90625 44 
C 12.296875 44 3.296875 34.390625 3.296875 21.546875 
C 3.296875 8.140625 12.703125 -1 22.90625 -1 
C 35.296875 -1 38.40625 10.5625 38.40625 11.671875 
C 38.40625 12.078125 38.296875 12.375 37.59375 12.375 
C 36.90625 12.375 36.796875 12.28125 36.40625 10.96875 
C 33.796875 2.8125 28.09375 0.796875 23.796875 0.796875 
C 17.40625 0.796875 9.703125 6.734375 9.703125 21.640625 
C 9.703125 36.84375 17.09375 42.1875 23 42.1875 
C 26.90625 42.1875 32.703125 40.34375 34.90625 35 
z
" id="CMR17-99"/>
      <path d="M 36 25.875 
C 36 32 36 35.546875 31.796875 39.59375 
C 28.09375 42.984375 23.796875 44 20.40625 44 
C 12.5 44 6.796875 37.625 6.796875 30.890625 
C 6.796875 27.1875 9.796875 27 10.40625 27 
C 11.703125 27 14 27.796875 14 30.59375 
C 14 33.09375 12.09375 34.1875 10.40625 34.1875 
C 10 34.1875 9.5 34.09375 9.203125 34 
C 11.296875 40.53125 16.703125 42.390625 20.203125 42.390625 
C 25.203125 42.390625 30.703125 37.828125 30.703125 29.296875 
L 30.703125 25.5 
C 24.796875 25.296875 17.703125 24.5 12.09375 21.453125 
C 5.796875 17.921875 4 12.84375 4 9 
C 4 1.203125 13 -1 18.296875 -1 
C 23.796875 -1 28.90625 2.109375 31.09375 7.890625 
C 31.296875 3.421875 34.09375 -0.609375 38.5 -0.609375 
C 40.59375 -0.609375 45.90625 0.796875 45.90625 8.796875 
L 45.90625 14.46875 
L 44.09375 14.46875 
L 44.09375 8.703125 
C 44.09375 2.515625 41.40625 1.703125 40.09375 1.703125 
C 36 1.703125 36 6.96875 36 11.4375 
z
M 30.703125 13.859375 
C 30.703125 5.046875 24.5 0.59375 19 0.59375 
C 14 0.59375 10.09375 4.34375 10.09375 9 
C 10.09375 12.046875 11.40625 17.40625 17.203125 20.65625 
C 22 23.390625 27.5 23.796875 30.703125 24 
z
" id="CMR17-97"/>
      <path d="M 43.796875 67.984375 
C 43.796875 69.796875 43.703125 69.890625 43.09375 69.890625 
C 42.5 69.890625 42.296875 69.484375 41.90625 68.59375 
L 38.90625 61.953125 
C 35.09375 67.5 29.296875 70 23 70 
C 12.796875 70 4.59375 61.84375 4.59375 51.578125 
C 4.59375 48.453125 5.296875 44.015625 8.703125 39.78125 
C 12.40625 35.15625 15.90625 34.34375 23.90625 32.234375 
C 26.90625 31.421875 31.90625 30.109375 32.90625 29.703125 
C 38.59375 27.296875 41.59375 21.25 41.59375 15.609375 
C 41.59375 8.34375 36.5 0.59375 27.796875 0.59375 
C 17.09375 0.59375 7.09375 6.640625 6.40625 20.75 
C 6.296875 22.359375 6.203125 22.453125 5.5 22.453125 
C 4.703125 22.453125 4.59375 22.359375 4.59375 20.34375 
L 4.59375 0 
C 4.59375 -1.8125 4.703125 -1.90625 5.296875 -1.90625 
C 6 -1.90625 6.203125 -1.40625 7.59375 1.703125 
C 7.703125 2 7.703125 2.203125 9.59375 6.03125 
C 14.59375 -0.609375 23 -2 27.796875 -2 
C 38.703125 -2 46.40625 7.140625 46.40625 17.828125 
C 46.40625 23.0625 44.5 27.09375 43.40625 28.90625 
C 39.203125 35.359375 34.703125 36.5625 29.90625 37.765625 
C 29.203125 38.078125 29 38.078125 23.40625 39.484375 
C 18 40.890625 15.703125 41.59375 13.203125 44.3125 
C 10.40625 47.4375 9.40625 50.671875 9.40625 53.890625 
C 9.40625 60.4375 14.59375 67.59375 23.09375 67.59375 
C 33.703125 67.59375 40.296875 60.03125 41.796875 47.4375 
C 42.09375 45.625 42.203125 45.53125 42.90625 45.53125 
C 43.796875 45.53125 43.796875 45.828125 43.796875 47.546875 
z
" id="CMR17-83"/>
      <path d="M 15.09375 40.390625 
L 29.09375 40.390625 
L 29.09375 43 
L 15.09375 43 
L 15.09375 62 
L 13.296875 62 
C 13.09375 51.4375 9.59375 42.1875 1.09375 41.984375 
L 1.09375 40.390625 
L 9.796875 40.390625 
L 9.796875 12.15625 
C 9.796875 10.234375 9.796875 -1 21.40625 -1 
C 27.296875 -1 30.703125 4.8125 30.703125 12.25 
L 30.703125 17.984375 
L 28.90625 17.984375 
L 28.90625 12.34375 
C 28.90625 5.421875 26.203125 0.796875 22 0.796875 
C 19.09375 0.796875 15.09375 2.796875 15.09375 11.953125 
z
" id="CMR17-116"/>
      <path d="M 41.5 30.53125 
C 41.5 35.65625 40.5 44 28.703125 44 
C 20.796875 44 16.703125 37.875 15.203125 33.84375 
L 15.09375 33.84375 
L 15.09375 44 
L 3.296875 42.890625 
L 3.296875 40.28125 
C 9.203125 40.28125 10.09375 39.6875 10.09375 34.859375 
L 10.09375 6.921875 
C 10.09375 3.09375 9.703125 2.59375 3.296875 2.59375 
L 3.296875 0 
C 5.703125 0.1875 10.09375 0.1875 12.703125 0.1875 
C 15.296875 0.1875 19.796875 0.1875 22.203125 0 
L 22.203125 2.59375 
C 15.796875 2.59375 15.40625 3 15.40625 6.921875 
L 15.40625 26.21875 
C 15.40625 35.453125 21 42.390625 28 42.390625 
C 35.40625 42.390625 36.203125 35.765625 36.203125 30.9375 
L 36.203125 6.921875 
C 36.203125 3.09375 35.796875 2.59375 29.40625 2.59375 
L 29.40625 0 
C 31.796875 0.1875 36.203125 0.1875 38.796875 0.1875 
C 41.40625 0.1875 45.90625 0.1875 48.296875 0 
L 48.296875 2.59375 
C 41.90625 2.59375 41.5 3 41.5 6.921875 
z
" id="CMR17-110"/>
     </defs>
     <g transform="translate(247.341386 254.835287)scale(0.1 -0.1)">
      <use transform="scale(0.996264)" xlink:href="#CMR17-78"/>
      <use transform="translate(69.07243 0)scale(0.996264)" xlink:href="#CMR17-117"/>
      <use transform="translate(119.9678 0)scale(0.996264)" xlink:href="#CMR17-109"/>
      <use transform="translate(196.887389 0)scale(0.996264)" xlink:href="#CMR17-101"/>
      <use transform="translate(237.37305 0)scale(0.996264)" xlink:href="#CMR17-114"/>
      <use transform="translate(272.653818 0)scale(0.996264)" xlink:href="#CMR17-105"/>
      <use transform="translate(297.524876 0)scale(0.996264)" xlink:href="#CMR17-99"/>
      <use transform="translate(338.010537 0)scale(0.996264)" xlink:href="#CMR17-97"/>
      <use transform="translate(383.701014 0)scale(0.996264)" xlink:href="#CMR17-108"/>
      <use transform="translate(438.648039 0)scale(0.996264)" xlink:href="#CMR17-83"/>
      <use transform="translate(489.543408 0)scale(0.996264)" xlink:href="#CMR17-105"/>
      <use transform="translate(514.414467 0)scale(0.996264)" xlink:href="#CMR17-109"/>
      <use transform="translate(588.731603 0)scale(0.996264)" xlink:href="#CMR17-117"/>
      <use transform="translate(639.626973 0)scale(0.996264)" xlink:href="#CMR17-108"/>
      <use transform="translate(664.498031 0)scale(0.996264)" xlink:href="#CMR17-97"/>
      <use transform="translate(710.188508 0)scale(0.996264)" xlink:href="#CMR17-116"/>
      <use transform="translate(745.469276 0)scale(0.996264)" xlink:href="#CMR17-105"/>
      <use transform="translate(770.340334 0)scale(0.996264)" xlink:href="#CMR17-111"/>
      <use transform="translate(816.030812 0)scale(0.996264)" xlink:href="#CMR17-110"/>
     </g>
    </g>
    <g id="line2d_39">
     <path d="M 219.341386 265.272465 
L 239.341386 265.272465 
" style="fill:none;"/>
    </g>
    <g id="line2d_40">
     <g>
      <use style="fill:#ff0000;stroke:#ff0000;stroke-linejoin:miter;" x="229.341386" xlink:href="#mc3b32a0ae8" y="265.272465"/>
     </g>
    </g>
    <g id="text_21">
     <!-- Gaussian Approximation -->
     <defs>
      <path d="M 62.09375 19.65625 
C 62.09375 23.484375 62.40625 24 68.59375 24 
L 68.59375 26.59375 
C 66.203125 26.390625 60.796875 26.390625 58.09375 26.390625 
C 55.296875 26.390625 47.5 26.5 43.703125 26.59375 
L 43.703125 24 
L 46.703125 24 
C 55.296875 24 55.5 22.875 55.5 19.25 
L 55.5 12.59375 
C 55.5 1.5 42.5 0.59375 39.40625 0.59375 
C 29.09375 0.59375 12.203125 7.75 12.203125 34.046875 
C 12.203125 60.34375 28.796875 67.390625 38.5 67.390625 
C 49.796875 67.390625 58 57.515625 59.90625 43.515625 
C 60.09375 42.3125 60.09375 42.109375 61 42.109375 
C 62.09375 42.109375 62.09375 42.3125 62.09375 44.125 
L 62.09375 67.984375 
C 62.09375 69.796875 62 69.890625 61.40625 69.890625 
C 61 69.890625 60.90625 69.796875 60.203125 68.59375 
L 55.796875 60.140625 
C 50.90625 66.390625 44.90625 70 37.203125 70 
C 20.09375 70 4.59375 54.796875 4.59375 34.046875 
C 4.59375 13.40625 19.796875 -2 37.40625 -2 
C 45.5 -2 53.40625 0.890625 56.5 6.640625 
C 58.203125 2.515625 61 -0.3125 61.5 -0.3125 
C 62 -0.3125 62.09375 -0.203125 62.09375 1.59375 
z
" id="CMR17-71"/>
      <path d="M 30.90625 42 
C 30.90625 43.796875 30.796875 43.890625 30.203125 43.890625 
C 29.796875 43.890625 29.703125 43.796875 28.5 42.296875 
C 28.203125 41.890625 27.296875 40.890625 27 40.5 
C 23.796875 43.890625 19.296875 44 17.59375 44 
C 6.5 44 2.5 38.1875 2.5 32.390625 
C 2.5 23.390625 12.703125 21.296875 15.59375 20.6875 
C 21.90625 19.390625 24.09375 19 26.203125 17.1875 
C 27.5 16 29.703125 13.796875 29.703125 10.1875 
C 29.703125 6 27.296875 0.59375 18.09375 0.59375 
C 9.40625 0.59375 6.296875 7.1875 4.5 16 
C 4.203125 17.390625 4.203125 17.5 3.40625 17.5 
C 2.59375 17.5 2.5 17.390625 2.5 15.390625 
L 2.5 1 
C 2.5 -0.8125 2.59375 -0.90625 3.203125 -0.90625 
C 3.703125 -0.90625 3.796875 -0.8125 4.296875 0 
C 4.90625 0.890625 6.40625 3.296875 7 4.296875 
C 9 1.59375 12.5 -1 18.09375 -1 
C 28 -1 33.296875 4.390625 33.296875 12.1875 
C 33.296875 17.296875 30.59375 20 29.296875 21.1875 
C 26.296875 24.296875 22.796875 25 18.59375 25.796875 
C 13.09375 27 6.09375 28.390625 6.09375 34.5 
C 6.09375 37.09375 7.5 42.59375 17.59375 42.59375 
C 28.296875 42.59375 28.90625 32.59375 29.09375 29.390625 
C 29.203125 28.890625 29.703125 28.796875 30 28.796875 
C 30.90625 28.796875 30.90625 29.09375 30.90625 30.796875 
z
" id="CMR17-115"/>
      <path d="M 36.296875 69.390625 
C 35.796875 70.6875 35.59375 71 34.59375 71 
C 33.59375 71 33.40625 70.6875 32.90625 69.390625 
L 11.703125 9.0625 
C 9.796875 3.6875 5.796875 2.59375 2.296875 2.59375 
L 2.296875 0 
C 4.09375 0.1875 8.09375 0.1875 10 0.1875 
C 12.5 0.1875 16.5 0.1875 18.90625 0 
L 18.90625 2.59375 
C 14.203125 2.796875 13.5 5.96875 13.5 7.171875 
C 13.5 8.0625 13.703125 8.5625 13.90625 9.15625 
L 19.203125 24 
L 45.40625 24 
L 51.40625 7.078125 
C 51.90625 5.875 51.90625 5.671875 51.90625 5.28125 
C 51.90625 2.59375 47.59375 2.59375 45.703125 2.59375 
L 45.703125 0 
C 48.59375 0.1875 53.796875 0.1875 56.90625 0.1875 
C 59.5 0.1875 64.5 0.1875 66.90625 0 
L 66.90625 2.59375 
C 61.59375 2.59375 59.796875 2.59375 58.5 6.28125 
z
M 32.296875 61.3125 
L 44.5 26.59375 
L 20.09375 26.59375 
z
" id="CMR17-65"/>
      <path d="M 22 -17.40625 
C 15.59375 -17.40625 15.203125 -17 15.203125 -13.03125 
L 15.203125 5.9375 
C 18.09375 1.703125 22.296875 -1 27.59375 -1 
C 37.59375 -1 47.703125 7.859375 47.703125 21.59375 
C 47.703125 34.3125 39 44 28.703125 44 
C 22.703125 44 17.796875 40.671875 15 36.640625 
L 15 44 
L 3.09375 42.890625 
L 3.09375 40.265625 
C 9 40.265625 9.90625 39.671875 9.90625 34.8125 
L 9.90625 -13.03125 
C 9.90625 -16.890625 9.5 -17.40625 3.09375 -17.40625 
L 3.09375 -20 
C 5.5 -19.8125 9.90625 -19.8125 12.5 -19.8125 
C 15.09375 -19.8125 19.59375 -19.8125 22 -20 
z
M 15.203125 31.484375 
C 15.203125 32.90625 15.203125 35.015625 19.09375 38.765625 
C 19.59375 39.15625 23 42.1875 28 42.1875 
C 35.296875 42.1875 41.296875 33 41.296875 21.5 
C 41.296875 9.984375 34.90625 0.59375 27 0.59375 
C 23.40625 0.59375 19.5 2.3125 16.5 7.046875 
C 15.203125 9.28125 15.203125 9.875 15.203125 11.5 
z
" id="CMR17-112"/>
      <path d="M 26 23.296875 
C 29 27.1875 32.40625 31.59375 35.203125 34.890625 
C 38.5 38.6875 42.296875 40.296875 46.703125 40.390625 
L 46.703125 43 
C 45 42.890625 41.5 42.796875 39.703125 42.796875 
C 37 42.796875 33.90625 42.796875 31.59375 43 
L 31.59375 40.390625 
C 33 40.1875 33.796875 39.1875 33.796875 37.796875 
C 33.796875 36 32.796875 34.890625 32.296875 34.1875 
L 24.90625 24.796875 
L 16.09375 36.296875 
C 15.203125 37.390625 15.203125 37.59375 15.203125 38.09375 
C 15.203125 39.296875 16.203125 40.296875 17.90625 40.390625 
L 17.90625 43 
C 15.5 42.796875 11.203125 42.796875 8.703125 42.796875 
C 6 42.796875 2.796875 42.796875 0.59375 43 
L 0.59375 40.390625 
C 6 40.390625 7.203125 40 9.59375 37 
L 21.09375 22.09375 
C 21.296875 21.890625 21.796875 21.296875 21.796875 21 
C 21.796875 20.59375 13.09375 9.890625 12 8.5 
C 7.5 3.09375 2.796875 2.6875 0.09375 2.59375 
L 0.09375 0 
C 1.796875 0.09375 5.296875 0.1875 7.09375 0.1875 
C 9.09375 0.1875 13.5 0.1875 15.296875 0 
L 15.296875 2.59375 
C 14.703125 2.6875 13.09375 2.890625 13.09375 5.1875 
C 13.09375 7 13.90625 8.09375 14.796875 9.296875 
L 23.09375 19.5 
L 31.796875 8.1875 
C 32.59375 7.09375 33.796875 5.59375 33.796875 4.890625 
C 33.796875 3.5 32.59375 2.6875 31 2.59375 
L 31 0 
C 33.40625 0.1875 37.703125 0.1875 40.203125 0.1875 
C 42.90625 0.1875 46.09375 0.1875 48.296875 0 
L 48.296875 2.59375 
C 43.296875 2.59375 41.796875 2.796875 39.40625 5.890625 
z
" id="CMR17-120"/>
     </defs>
     <g transform="translate(247.341386 268.772465)scale(0.1 -0.1)">
      <use transform="scale(0.996264)" xlink:href="#CMR17-71"/>
      <use transform="translate(72.355346 0)scale(0.996264)" xlink:href="#CMR17-97"/>
      <use transform="translate(118.045823 0)scale(0.996264)" xlink:href="#CMR17-117"/>
      <use transform="translate(168.941193 0)scale(0.996264)" xlink:href="#CMR17-115"/>
      <use transform="translate(204.74253 0)scale(0.996264)" xlink:href="#CMR17-115"/>
      <use transform="translate(240.543868 0)scale(0.996264)" xlink:href="#CMR17-105"/>
      <use transform="translate(265.414927 0)scale(0.996264)" xlink:href="#CMR17-97"/>
      <use transform="translate(311.105404 0)scale(0.996264)" xlink:href="#CMR17-110"/>
      <use transform="translate(392.07674 0)scale(0.996264)" xlink:href="#CMR17-65"/>
      <use transform="translate(461.14917 0)scale(0.996264)" xlink:href="#CMR17-112"/>
      <use transform="translate(512.044539 0)scale(0.996264)" xlink:href="#CMR17-112"/>
      <use transform="translate(562.939909 0)scale(0.996264)" xlink:href="#CMR17-114"/>
      <use transform="translate(598.220677 0)scale(0.996264)" xlink:href="#CMR17-111"/>
      <use transform="translate(641.3087 0)scale(0.996264)" xlink:href="#CMR17-120"/>
      <use transform="translate(689.601616 0)scale(0.996264)" xlink:href="#CMR17-105"/>
      <use transform="translate(714.472674 0)scale(0.996264)" xlink:href="#CMR17-109"/>
      <use transform="translate(791.392264 0)scale(0.996264)" xlink:href="#CMR17-97"/>
      <use transform="translate(837.082741 0)scale(0.996264)" xlink:href="#CMR17-116"/>
      <use transform="translate(872.363509 0)scale(0.996264)" xlink:href="#CMR17-105"/>
      <use transform="translate(897.234568 0)scale(0.996264)" xlink:href="#CMR17-111"/>
      <use transform="translate(942.925045 0)scale(0.996264)" xlink:href="#CMR17-110"/>
     </g>
    </g>
    <g id="line2d_41">
     <path d="M 219.341386 279.209643 
L 239.341386 279.209643 
" style="fill:none;stroke:#008000;stroke-linecap:square;stroke-width:1.5;"/>
    </g>
    <g id="line2d_42"/>
    <g id="text_22">
     <!-- Full Sanov theorem approximation -->
     <defs>
      <path d="M 54.40625 67.796875 
L 5.09375 67.796875 
L 5.09375 65.1875 
C 12 65.1875 13.09375 65.1875 13.09375 60.671875 
L 13.09375 7.03125 
C 13.09375 2.59375 12 2.59375 5.09375 2.59375 
L 5.09375 0 
C 8 0.1875 13.59375 0.1875 16.703125 0.1875 
C 20.796875 0.1875 25.59375 0.1875 29.703125 0 
L 29.703125 2.59375 
L 27.5 2.59375 
C 19.90625 2.59375 19.703125 3.578125 19.703125 7.125 
L 19.703125 32.390625 
L 28.703125 32.390625 
C 38 32.390625 38.90625 29.140625 38.90625 20.84375 
L 40.703125 20.84375 
L 40.703125 46.734375 
L 38.90625 46.734375 
C 38.90625 38.296875 38 35 28.703125 35 
L 19.703125 35 
L 19.703125 61.28125 
C 19.703125 64.6875 19.90625 65.1875 23.90625 65.1875 
L 36.796875 65.1875 
C 51.90625 65.1875 53.59375 58.96875 55 45.625 
L 56.796875 45.625 
z
" id="CMR17-70"/>
      <path d="M 39.09375 33.953125 
C 40 36.171875 41.59375 40.1875 47.40625 40.390625 
L 47.40625 43 
C 45.5 42.890625 43 42.796875 41.09375 42.796875 
C 39 42.796875 35.703125 42.796875 33.703125 43 
L 33.703125 40.390625 
C 36.203125 40.1875 37.59375 38.984375 37.59375 36.375 
C 37.59375 35.46875 37.59375 35.265625 37 33.859375 
L 26 5.921875 
L 14.09375 36.0625 
C 13.5 37.375 13.5 37.578125 13.5 37.984375 
C 13.5 40.390625 16.796875 40.390625 18.296875 40.390625 
L 18.296875 43 
C 15.90625 42.796875 11.5 42.796875 9 42.796875 
C 6.296875 42.796875 3.203125 42.796875 1 43 
L 1 40.390625 
C 4.796875 40.390625 6.90625 40.390625 8.09375 37.28125 
L 22.59375 0.6875 
C 23.203125 -0.8125 23.296875 -1 24.203125 -1 
C 25.09375 -1 25.203125 -0.8125 25.796875 0.6875 
z
" id="CMR17-118"/>
      <path d="M 41.5 30.53125 
C 41.5 35.65625 40.5 44 28.703125 44 
C 20.5 44 16.5 37.375 15.296875 34.046875 
L 15.203125 34.046875 
L 15.203125 69 
L 3.296875 67.890625 
L 3.296875 65.296875 
C 9.203125 65.296875 10.09375 64.703125 10.09375 60.046875 
L 10.09375 6.921875 
C 10.09375 3.09375 9.703125 2.59375 3.296875 2.59375 
L 3.296875 0 
C 5.703125 0.1875 10.09375 0.1875 12.703125 0.1875 
C 15.296875 0.1875 19.796875 0.1875 22.203125 0 
L 22.203125 2.59375 
C 15.796875 2.59375 15.40625 3 15.40625 6.921875 
L 15.40625 26.21875 
C 15.40625 35.453125 21 42.390625 28 42.390625 
C 35.40625 42.390625 36.203125 35.765625 36.203125 30.9375 
L 36.203125 6.921875 
C 36.203125 3.09375 35.796875 2.59375 29.40625 2.59375 
L 29.40625 0 
C 31.796875 0.1875 36.203125 0.1875 38.796875 0.1875 
C 41.40625 0.1875 45.90625 0.1875 48.296875 0 
L 48.296875 2.59375 
C 41.90625 2.59375 41.5 3 41.5 6.921875 
z
" id="CMR17-104"/>
     </defs>
     <g transform="translate(247.341386 282.709643)scale(0.1 -0.1)">
      <use transform="scale(0.996264)" xlink:href="#CMR17-70"/>
      <use transform="translate(52.176591 0)scale(0.996264)" xlink:href="#CMR17-117"/>
      <use transform="translate(103.071961 0)scale(0.996264)" xlink:href="#CMR17-108"/>
      <use transform="translate(127.943019 0)scale(0.996264)" xlink:href="#CMR17-108"/>
      <use transform="translate(182.890044 0)scale(0.996264)" xlink:href="#CMR17-83"/>
      <use transform="translate(233.785414 0)scale(0.996264)" xlink:href="#CMR17-97"/>
      <use transform="translate(279.475891 0)scale(0.996264)" xlink:href="#CMR17-110"/>
      <use transform="translate(330.371261 0)scale(0.996264)" xlink:href="#CMR17-111"/>
      <use transform="translate(373.459284 0)scale(0.996264)" xlink:href="#CMR17-118"/>
      <use transform="translate(451.828166 0)scale(0.996264)" xlink:href="#CMR17-116"/>
      <use transform="translate(487.108934 0)scale(0.996264)" xlink:href="#CMR17-104"/>
      <use transform="translate(538.004304 0)scale(0.996264)" xlink:href="#CMR17-101"/>
      <use transform="translate(578.489964 0)scale(0.996264)" xlink:href="#CMR17-111"/>
      <use transform="translate(624.180442 0)scale(0.996264)" xlink:href="#CMR17-114"/>
      <use transform="translate(659.461209 0)scale(0.996264)" xlink:href="#CMR17-101"/>
      <use transform="translate(699.94687 0)scale(0.996264)" xlink:href="#CMR17-109"/>
      <use transform="translate(806.942426 0)scale(0.996264)" xlink:href="#CMR17-97"/>
      <use transform="translate(852.632903 0)scale(0.996264)" xlink:href="#CMR17-112"/>
      <use transform="translate(903.528273 0)scale(0.996264)" xlink:href="#CMR17-112"/>
      <use transform="translate(954.423643 0)scale(0.996264)" xlink:href="#CMR17-114"/>
      <use transform="translate(989.70441 0)scale(0.996264)" xlink:href="#CMR17-111"/>
      <use transform="translate(1032.792434 0)scale(0.996264)" xlink:href="#CMR17-120"/>
      <use transform="translate(1081.085349 0)scale(0.996264)" xlink:href="#CMR17-105"/>
      <use transform="translate(1105.956408 0)scale(0.996264)" xlink:href="#CMR17-109"/>
      <use transform="translate(1182.875998 0)scale(0.996264)" xlink:href="#CMR17-97"/>
      <use transform="translate(1228.566475 0)scale(0.996264)" xlink:href="#CMR17-116"/>
      <use transform="translate(1263.847243 0)scale(0.996264)" xlink:href="#CMR17-105"/>
      <use transform="translate(1288.718301 0)scale(0.996264)" xlink:href="#CMR17-111"/>
      <use transform="translate(1334.408778 0)scale(0.996264)" xlink:href="#CMR17-110"/>
     </g>
    </g>
    <g id="line2d_43">
     <path d="M 219.341386 293.146822 
L 239.341386 293.146822 
" style="fill:none;stroke:#000000;stroke-dasharray:7.4,3.2;stroke-dashoffset:0;stroke-width:2;"/>
    </g>
    <g id="line2d_44"/>
    <g id="text_23">
     <!-- Sanov theorem with chosen function -->
     <defs>
      <path d="M 58.203125 34.15625 
C 60.203125 40.09375 64.203125 40.296875 65.703125 40.390625 
L 65.703125 43 
C 63.703125 42.890625 61.703125 42.796875 59.703125 42.796875 
C 57.796875 42.796875 53.5 42.796875 51.796875 43 
L 51.796875 40.390625 
C 54.90625 40.1875 56.59375 38.375 56.59375 35.875 
C 56.59375 35.171875 56.40625 34.265625 56.203125 33.5625 
L 46.796875 6.21875 
L 36.59375 35.875 
C 36.40625 36.578125 36.09375 37.375 36.09375 37.78125 
C 36.09375 40.390625 39.5 40.390625 41.09375 40.390625 
L 41.09375 43 
C 38.796875 42.796875 34.59375 42.796875 32.203125 42.796875 
C 29.703125 42.796875 27.09375 42.796875 24.796875 43 
L 24.796875 40.390625 
C 30.296875 40.390625 30.296875 40.1875 32.40625 33.859375 
L 23.203125 6.921875 
L 13.296875 35.96875 
C 12.796875 37.28125 12.796875 37.484375 12.796875 37.78125 
C 12.796875 40.390625 16.203125 40.390625 17.796875 40.390625 
L 17.796875 43 
C 15.40625 42.796875 11.203125 42.796875 8.703125 42.796875 
C 6.5 42.796875 3.09375 42.796875 1 43 
L 1 40.390625 
C 5.40625 40.390625 6.5 40.09375 7.59375 36.765625 
L 19.90625 0.59375 
C 20.296875 -0.703125 20.59375 -1 21.40625 -1 
C 22.09375 -1 22.5 -0.8125 23 0.6875 
L 33.296875 31.046875 
L 43.703125 0.6875 
C 44.203125 -0.8125 44.59375 -1 45.296875 -1 
C 46.09375 -1 46.40625 -0.703125 46.796875 0.59375 
z
" id="CMR17-119"/>
      <path d="M 15.296875 40.390625 
L 26.703125 40.390625 
L 26.703125 43 
L 15.09375 43 
L 15.09375 55.296875 
C 15.09375 63.6875 19.296875 68.390625 23.59375 68.390625 
C 24.90625 68.390625 26.40625 68.171875 27.40625 67.796875 
C 26.59375 67.59375 24.5 66.890625 24.5 64.390625 
C 24.5 61.796875 26.5 61 27.90625 61 
C 29.296875 61 31.296875 61.796875 31.296875 64.390625 
C 31.296875 68.015625 27.703125 70 23.703125 70 
C 18 70 10.203125 65.796875 10.203125 55.09375 
L 10.203125 43 
L 2.203125 43 
L 2.203125 40.390625 
L 10.203125 40.390625 
L 10.203125 6.890625 
C 10.203125 3.09375 9.796875 2.59375 3.40625 2.59375 
L 3.40625 0 
C 5.796875 0.1875 10.40625 0.1875 13 0.1875 
C 15.90625 0.1875 21 0.1875 23.703125 0 
L 23.703125 2.59375 
C 16.5 2.59375 15.296875 2.59375 15.296875 7.09375 
z
" id="CMR17-102"/>
     </defs>
     <g transform="translate(247.341386 296.646822)scale(0.1 -0.1)">
      <use transform="scale(0.996264)" xlink:href="#CMR17-83"/>
      <use transform="translate(50.89537 0)scale(0.996264)" xlink:href="#CMR17-97"/>
      <use transform="translate(96.585847 0)scale(0.996264)" xlink:href="#CMR17-110"/>
      <use transform="translate(147.481217 0)scale(0.996264)" xlink:href="#CMR17-111"/>
      <use transform="translate(190.56924 0)scale(0.996264)" xlink:href="#CMR17-118"/>
      <use transform="translate(268.938122 0)scale(0.996264)" xlink:href="#CMR17-116"/>
      <use transform="translate(304.21889 0)scale(0.996264)" xlink:href="#CMR17-104"/>
      <use transform="translate(355.11426 0)scale(0.996264)" xlink:href="#CMR17-101"/>
      <use transform="translate(395.59992 0)scale(0.996264)" xlink:href="#CMR17-111"/>
      <use transform="translate(441.290397 0)scale(0.996264)" xlink:href="#CMR17-114"/>
      <use transform="translate(476.571165 0)scale(0.996264)" xlink:href="#CMR17-101"/>
      <use transform="translate(517.056825 0)scale(0.996264)" xlink:href="#CMR17-109"/>
      <use transform="translate(624.052382 0)scale(0.996264)" xlink:href="#CMR17-119"/>
      <use transform="translate(690.562262 0)scale(0.996264)" xlink:href="#CMR17-105"/>
      <use transform="translate(715.433321 0)scale(0.996264)" xlink:href="#CMR17-116"/>
      <use transform="translate(750.714089 0)scale(0.996264)" xlink:href="#CMR17-104"/>
      <use transform="translate(831.685425 0)scale(0.996264)" xlink:href="#CMR17-99"/>
      <use transform="translate(869.568631 0)scale(0.996264)" xlink:href="#CMR17-104"/>
      <use transform="translate(920.464001 0)scale(0.996264)" xlink:href="#CMR17-111"/>
      <use transform="translate(966.154478 0)scale(0.996264)" xlink:href="#CMR17-115"/>
      <use transform="translate(1001.955816 0)scale(0.996264)" xlink:href="#CMR17-101"/>
      <use transform="translate(1042.441476 0)scale(0.996264)" xlink:href="#CMR17-110"/>
      <use transform="translate(1123.412812 0)scale(0.996264)" xlink:href="#CMR17-102"/>
      <use transform="translate(1150.886325 0)scale(0.996264)" xlink:href="#CMR17-117"/>
      <use transform="translate(1201.781695 0)scale(0.996264)" xlink:href="#CMR17-110"/>
      <use transform="translate(1252.677064 0)scale(0.996264)" xlink:href="#CMR17-99"/>
      <use transform="translate(1293.162725 0)scale(0.996264)" xlink:href="#CMR17-116"/>
      <use transform="translate(1328.443493 0)scale(0.996264)" xlink:href="#CMR17-105"/>
      <use transform="translate(1353.314551 0)scale(0.996264)" xlink:href="#CMR17-111"/>
      <use transform="translate(1399.005028 0)scale(0.996264)" xlink:href="#CMR17-110"/>
     </g>
    </g>
   </g>
  </g>
 </g>
 <defs>
  <clipPath id="pb32b0d6475">
   <rect height="266.112" width="357.12" x="57.6" y="41.472"/>
  </clipPath>
 </defs>
</svg>
